<?xml version="1.0" standalone="no"?>
<!DOCTYPE svg PUBLIC "-//W3C//DTD SVG 20010904//EN"
 "http://www.w3.org/TR/2001/REC-SVG-20010904/DTD/svg10.dtd">
<svg version="1.0" xmlns="http://www.w3.org/2000/svg"
 width="653.000000pt" height="653.000000pt" viewBox="0 0 653.000000 653.000000"
 preserveAspectRatio="xMidYMid meet">
<metadata>
Created by potrace 1.14, written by Peter Selinger 2001-2017
</metadata>
<g transform="translate(0.000000,653.000000) scale(0.100000,-0.100000)"
fill="#000000" stroke="none">
<path d="M2940 6519 c-774 -86 -1456 -412 -1993 -953 -534 -537 -858 -1239
-928 -2005 -16 -185 -6 -553 20 -733 107 -727 426 -1354 960 -1889 208 -207
394 -351 634 -489 410 -235 910 -383 1452 -430 535 -47 1231 103 1745 377 481
256 884 641 1175 1123 67 111 195 364 253 500 332 783 337 1699 12 2489 -411
999 -1278 1726 -2325 1951 -234 50 -348 62 -640 65 -154 2 -318 -1 -365 -6z
m495 -9 c466 -29 842 -129 1260 -335 322 -158 596 -354 850 -609 258 -259 452
-530 610 -851 219 -446 320 -846 332 -1326 l6 -216 -59 -45 c-191 -147 -498
-314 -689 -376 -463 -149 -827 -53 -1081 285 -32 43 -61 82 -65 87 -4 5 -49
-27 -99 -70 -50 -44 -95 -80 -99 -82 -5 -1 -40 53 -79 120 -310 541 -321 557
-432 598 -86 32 -104 58 -95 140 17 175 17 173 -10 270 -41 146 -65 180 -137
189 l-40 6 -3 70 c-5 129 -70 252 -196 369 -243 226 -398 311 -727 396 -42 11
-43 13 -103 133 -34 67 -63 123 -64 125 -2 2 -161 -76 -354 -172 l-351 -176
61 -123 62 -123 -41 -106 c-23 -58 -49 -137 -58 -175 -20 -85 -16 -194 9 -221
16 -18 16 -20 -3 -37 -40 -36 -53 -116 -47 -275 l5 -145 174 -345 173 -345 84
-41 c47 -23 98 -56 114 -74 28 -32 29 -36 23 -99 -4 -36 -10 -69 -14 -73 -10
-10 -186 101 -291 182 -46 36 -91 71 -101 78 -17 12 -29 3 -122 -90 -165 -165
-366 -288 -553 -338 -119 -32 -293 -38 -415 -12 -107 22 -220 64 -319 119
-144 81 -352 258 -483 413 l-46 55 8 170 c32 604 207 1140 536 1635 557 840
1488 1378 2489 1439 191 12 206 12 380 1z"/>
<path d="M1900 5751 c-265 -124 -298 -142 -327 -179 -17 -23 -36 -64 -42 -91
-10 -50 -10 -51 61 -204 l71 -154 437 205 438 204 -68 144 c-37 79 -73 151
-80 160 -26 30 -88 54 -142 54 -47 -1 -87 -17 -348 -139z"/>
</g>
</svg>
