<?xml version="1.0" standalone="no"?>
<!DOCTYPE svg PUBLIC "-//W3C//DTD SVG 20010904//EN"
 "http://www.w3.org/TR/2001/REC-SVG-20010904/DTD/svg10.dtd">
<svg version="1.0" xmlns="http://www.w3.org/2000/svg"
 width="563.000000pt" height="563.000000pt" viewBox="0 0 563.000000 563.000000"
 preserveAspectRatio="xMidYMid meet">
<metadata>
Created by potrace 1.14, written by Peter Selinger 2001-2017
</metadata>
<g transform="translate(0.000000,563.000000) scale(0.100000,-0.100000)"
fill="#000000" stroke="none">
<path d="M2730 5578 c-14 -5 -50 -11 -80 -12 -31 -1 -61 -5 -68 -10 -7 -4 -30
-8 -52 -8 -22 0 -43 -4 -46 -9 -3 -5 -16 -9 -30 -9 -14 0 -35 -9 -47 -20 -12
-12 -23 -16 -25 -10 -6 17 -25 11 -62 -20 -19 -17 -42 -30 -52 -30 -10 0 -18
-5 -18 -11 0 -5 -5 -7 -10 -4 -6 4 -36 -3 -67 -15 -31 -11 -63 -18 -71 -15 -8
3 -16 -3 -19 -14 -5 -21 -29 -35 -45 -25 -5 3 -12 -3 -15 -15 -3 -12 -10 -21
-15 -21 -5 0 -6 6 -3 13 4 6 1 5 -7 -4 -7 -9 -18 -14 -25 -12 -6 2 -18 -8 -26
-23 -9 -17 -17 -23 -21 -15 -11 17 -24 13 -31 -10 -4 -12 -12 -18 -21 -15 -8
3 -14 1 -14 -5 0 -6 -7 -9 -14 -6 -10 4 -13 1 -10 -8 3 -8 -7 -33 -24 -57 -16
-24 -41 -62 -56 -85 -14 -24 -31 -43 -37 -43 -6 0 -9 -6 -6 -13 3 -7 -1 -21
-9 -32 -8 -10 -14 -27 -14 -37 0 -10 -4 -18 -9 -18 -8 0 -25 -56 -22 -72 0 -5
-8 -8 -19 -8 -11 0 -20 -3 -21 -7 0 -5 -2 -22 -2 -40 -1 -17 -5 -34 -9 -38 -4
-4 -4 -13 -1 -21 3 -8 1 -14 -5 -14 -11 0 -27 -45 -34 -97 -1 -7 -4 -13 -8
-13 -7 0 -5 -47 5 -96 5 -21 2 -36 -9 -47 -9 -9 -16 -32 -16 -55 0 -25 -8 -49
-22 -67 -12 -16 -23 -44 -25 -63 -2 -20 -6 -38 -10 -41 -5 -3 -8 -23 -8 -44 0
-34 2 -38 23 -34 17 3 20 1 12 -9 -8 -9 -7 -18 2 -33 11 -17 10 -25 -5 -51
-19 -32 -16 -50 9 -50 12 0 12 -4 -2 -31 -11 -23 -13 -34 -5 -39 7 -3 11 -20
9 -36 -1 -16 -1 -49 1 -74 2 -34 4 -40 10 -25 6 14 8 5 8 -30 0 -27 6 -77 12
-110 7 -34 9 -75 5 -95 -5 -19 -7 -47 -5 -62 2 -25 -1 -28 -28 -28 -32 0 -67
-34 -78 -78 -8 -34 23 -254 47 -330 11 -35 20 -87 20 -116 0 -71 44 -245 80
-316 16 -32 47 -78 68 -103 29 -34 41 -58 46 -94 9 -61 61 -261 87 -331 23
-65 60 -138 109 -217 l37 -60 33 -457 33 -456 -39 -49 c-22 -26 -41 -50 -44
-53 -3 -3 -18 -25 -34 -50 -16 -25 -37 -57 -48 -72 -10 -15 -18 -33 -18 -40 0
-8 5 -6 11 5 5 9 16 17 23 17 16 0 17 -32 2 -42 -8 -6 -8 -8 0 -8 12 0 6 -43
-15 -110 -16 -50 -13 -72 4 -26 18 50 40 74 28 31 -4 -16 -7 -51 -7 -77 0 -28
-4 -46 -10 -45 -6 1 -13 -18 -16 -43 -4 -33 1 -65 22 -124 24 -71 29 -108 10
-80 -4 5 -22 31 -39 56 -18 26 -33 51 -33 57 0 6 -5 11 -11 11 -5 0 -7 5 -4
10 13 22 -8 48 -60 74 -60 31 -75 28 -75 -12 0 -15 -3 -44 -6 -64 -5 -31 -12
-39 -40 -48 -18 -6 -69 -35 -112 -64 -44 -29 -95 -58 -113 -65 -67 -25 -172
-76 -203 -99 -17 -13 -47 -31 -66 -40 -33 -16 -15 -17 415 -20 248 -1 457 0
465 4 13 4 12 7 -2 15 -10 6 -18 19 -18 29 0 11 -4 20 -8 20 -5 0 -15 12 -23
28 -8 15 -16 29 -19 32 -11 11 -31 52 -27 56 8 9 44 -33 62 -74 10 -24 23 -46
29 -50 7 -4 19 -19 29 -34 16 -26 22 -28 85 -28 l67 0 2 42 c2 23 -2 47 -8 54
-7 8 -7 14 1 19 14 9 79 -46 77 -65 -5 -34 30 -50 108 -50 74 0 86 5 63 28 -8
8 -8 15 1 25 9 11 8 17 -3 26 -11 9 -15 9 -19 -1 -7 -22 0 125 8 150 8 25 29
28 88 11 26 -7 41 -18 47 -35 5 -13 16 -24 25 -24 8 0 15 -4 15 -9 0 -6 12
-16 28 -23 21 -11 26 -19 24 -41 -2 -16 2 -35 8 -42 7 -8 9 -26 6 -40 l-6 -25
175 0 c144 0 175 2 175 14 0 8 -5 16 -12 18 -7 3 -13 31 -14 69 -2 35 -4 66
-5 69 -5 19 6 71 22 103 32 61 60 88 124 118 46 21 84 52 166 136 58 59 118
124 133 143 16 19 60 70 98 112 75 82 134 158 123 158 -3 0 -27 -23 -53 -52
-87 -96 -207 -221 -232 -242 -14 -11 -57 -52 -96 -91 -39 -39 -77 -69 -83 -67
-6 2 -11 -1 -11 -8 0 -6 -5 -8 -12 -4 -8 5 -9 2 -5 -9 5 -13 -2 -18 -33 -23
-40 -7 -51 -17 -27 -28 6 -3 0 -4 -15 -1 -21 4 -28 1 -28 -10 0 -8 -6 -15 -14
-15 -8 0 -22 -3 -32 -7 -12 -4 -15 -3 -10 6 6 9 3 9 -13 -1 -12 -7 -24 -21
-27 -30 -4 -15 -13 -17 -45 -12 -26 4 -39 3 -39 -5 0 -6 -13 -11 -29 -11 -17
0 -31 -6 -35 -16 -5 -14 -9 -14 -23 -3 -9 8 -24 13 -34 11 -13 -2 -20 5 -25
22 -7 29 -29 35 -38 11 -3 -8 -13 -15 -23 -15 -13 0 -15 2 -5 9 10 6 5 16 -20
42 -17 19 -31 38 -30 42 2 5 -7 11 -18 14 -29 8 -29 84 1 112 25 23 18 38 -27
57 -19 8 -34 21 -34 29 0 8 -4 15 -10 15 -5 0 -10 9 -10 19 0 11 -4 22 -9 25
-4 3 -6 29 -3 57 3 37 1 54 -9 60 -12 8 -11 12 4 23 9 7 17 21 17 30 0 10 5
26 10 36 8 14 6 21 -5 28 -13 7 -11 11 12 21 l28 13 -23 18 c-15 13 -18 20
-10 24 10 4 10 8 2 11 -30 15 -84 69 -84 85 0 9 -8 28 -19 41 -20 27 -14 65
14 75 8 3 12 10 9 15 -3 5 6 9 20 9 13 0 26 4 28 10 2 5 62 19 133 32 72 12
132 25 135 29 10 12 56 25 124 32 21 2 41 9 45 15 7 11 111 44 111 35 0 -3 6
-1 13 5 7 6 32 14 56 18 24 4 65 22 92 40 27 19 52 34 57 34 18 0 62 48 49 53
-9 4 -9 8 1 15 8 5 12 22 10 37 -2 19 2 30 12 32 13 4 13 3 0 -7 -13 -10 -13
-11 0 -7 8 2 16 18 18 35 2 18 7 32 13 32 5 0 9 7 9 15 0 18 -29 9 -53 -18
-19 -22 -31 -19 -22 6 4 8 20 21 36 27 23 10 27 15 18 26 -6 8 -9 25 -7 39 7
32 -11 44 -28 21 -7 -10 -17 -15 -23 -11 -6 3 -19 1 -28 -4 -14 -8 -15 -11 -3
-11 21 -1 -48 -30 -71 -30 -33 0 -20 -20 14 -21 l32 -2 -30 -4 c-16 -3 -46
-18 -66 -34 -44 -35 -49 -36 -49 -7 0 17 -3 19 -12 10 -7 -7 -25 -12 -41 -12
-16 0 -26 -4 -22 -10 3 -5 -10 -26 -29 -45 -35 -35 -56 -44 -56 -25 0 6 -4 10
-10 10 -5 0 -10 -6 -10 -13 0 -9 -14 -12 -47 -11 -27 1 -51 -3 -54 -8 -4 -7
-13 -7 -24 -1 -16 9 -16 10 1 17 16 6 14 9 -14 23 -26 12 -35 13 -47 3 -12
-10 -15 -9 -16 6 -1 11 -1 22 0 27 1 9 -35 9 -82 -2 -44 -11 -77 -4 -77 15 0
8 -6 11 -16 7 -10 -4 -25 4 -40 21 -14 14 -31 26 -38 26 -8 0 -17 7 -20 16 -5
13 -9 14 -21 4 -19 -16 -35 -4 -35 25 0 15 -7 26 -21 30 -11 4 -24 18 -29 31
-5 13 -14 24 -20 24 -5 0 -10 9 -10 20 0 11 5 20 11 20 7 0 9 10 5 27 -8 30 5
43 47 43 15 0 30 7 33 15 4 10 13 13 25 10 12 -4 21 -1 25 10 4 9 13 14 22 10
8 -3 24 2 34 12 14 13 37 18 79 18 42 0 63 5 69 15 8 12 10 12 10 1 0 -9 9 -4
25 13 13 14 29 26 35 26 5 0 10 8 11 18 1 9 2 26 3 36 1 14 16 23 64 37 64 18
110 55 91 74 -14 14 -11 35 6 35 8 0 15 -9 15 -20 0 -25 25 -26 39 -3 7 11 11
13 11 5 0 -9 7 -11 23 -7 36 11 191 86 210 103 31 27 21 41 -30 40 -27 -1 -83
3 -126 7 -53 5 -81 5 -85 -3 -4 -5 -28 -13 -54 -17 -45 -7 -48 -6 -48 16 0 12
-3 19 -7 15 -4 -4 -8 -13 -8 -19 0 -13 -7 -17 -30 -17 -8 0 -15 5 -15 10 0 6
7 10 15 10 21 0 19 20 -2 20 -10 1 -79 3 -153 5 -74 2 -148 8 -163 14 -16 6
-64 12 -108 12 -60 1 -79 4 -79 15 0 7 11 16 25 20 14 3 23 10 20 14 -2 4 8 7
23 7 45 1 95 12 102 23 6 9 35 12 127 10 18 0 35 -5 38 -10 28 -45 18 75 -10
130 -20 38 -49 70 -64 70 -5 0 -20 14 -33 30 -13 17 -33 42 -45 56 -23 27 -40
85 -29 103 4 5 2 12 -3 15 -11 7 -3 75 10 92 19 24 57 143 63 198 4 33 11 65
16 71 5 6 12 36 16 66 7 61 -11 109 -60 160 -14 15 -22 29 -19 32 3 3 -5 39
-17 79 -13 40 -25 67 -27 60 -4 -10 -9 -7 -20 8 -10 14 -21 19 -34 15 -14 -5
-24 2 -40 29 -19 33 -39 47 -39 28 0 -4 -9 -8 -20 -8 -11 0 -20 3 -20 6 0 3
-15 6 -32 6 -65 3 -184 16 -219 23 -21 5 -43 5 -50 0 -32 -20 -41 7 -13 35 12
12 12 16 2 17 -7 1 1 5 17 9 29 7 29 8 8 15 -24 8 -29 20 -13 30 6 3 10 14 10
24 0 10 7 24 15 31 8 7 15 21 15 31 0 12 7 19 20 19 21 0 28 24 10 35 -6 4 -8
10 -5 15 3 5 -2 13 -11 18 -15 8 -12 11 13 16 25 6 30 11 25 28 -4 17 -2 19
17 13 18 -5 21 -2 21 19 0 14 4 27 10 31 5 3 9 18 9 33 -1 52 8 110 31 201 14
59 61 106 119 121 25 7 55 16 66 20 18 8 44 12 145 26 60 8 121 13 213 18 48
3 96 7 107 11 10 3 52 8 92 10 40 3 96 9 125 13 35 6 56 5 64 -2 9 -8 10 -8 5
2 -8 14 10 17 19 3 3 -5 21 -7 40 -4 26 4 35 2 35 -8 0 -11 2 -11 10 1 5 8 10
12 10 8 0 -4 12 -3 27 3 18 7 28 6 33 -1 4 -7 15 -8 31 -2 32 12 121 5 130
-10 4 -7 25 -13 47 -14 31 -1 46 -9 69 -34 15 -18 43 -48 61 -66 17 -19 32
-38 32 -44 0 -5 9 -19 19 -29 28 -28 38 -50 46 -103 5 -33 13 -49 26 -53 10
-3 21 -16 24 -28 14 -50 28 -77 40 -77 13 0 35 -50 35 -80 0 -10 7 -21 16 -24
13 -5 15 -15 10 -51 -4 -25 -4 -50 0 -57 4 -7 9 -34 10 -61 1 -26 7 -54 13
-61 6 -7 13 -23 15 -37 3 -13 5 -26 6 -29 1 -3 3 -9 4 -15 0 -5 9 -22 19 -36
15 -22 18 -56 22 -215 2 -104 8 -207 13 -229 5 -22 7 -80 5 -128 -2 -53 1 -87
7 -87 8 0 16 89 11 122 0 4 8 10 19 13 11 4 20 14 21 23 0 14 2 13 8 -3 7 -19
9 -18 21 5 l13 25 13 -30 12 -30 17 43 c18 45 31 53 38 25 3 -10 5 -1 6 19 1
25 9 45 26 62 13 13 27 37 29 52 7 38 20 48 61 47 24 -1 35 3 35 13 0 8 -9 14
-21 14 -15 0 -19 5 -15 15 4 10 -1 15 -15 15 -11 0 -18 4 -15 8 5 8 19 336 17
390 0 12 3 22 7 22 9 0 13 39 13 113 -1 33 3 57 9 57 6 0 10 6 9 13 -1 6 1 24
5 38 4 15 3 42 -2 61 -6 21 -6 42 1 58 13 33 15 143 2 152 -6 4 -2 8 9 8 13 0
16 3 9 13 -6 6 -13 26 -17 42 -4 17 -14 37 -22 46 -13 15 -13 17 2 23 16 6 16
7 0 19 -16 12 -16 14 -2 26 21 18 20 31 -1 31 -17 1 -17 2 -2 13 15 11 15 15
2 32 -9 13 -12 32 -9 53 4 26 1 32 -12 32 -12 0 -18 9 -20 27 -1 15 -7 30 -14
34 -6 4 -8 14 -5 22 3 9 -3 27 -13 40 -11 13 -17 27 -14 30 3 3 -4 8 -16 12
-15 5 -19 12 -14 27 3 11 0 32 -7 47 -16 31 -65 81 -79 81 -5 0 -10 8 -10 18
0 29 -24 72 -37 67 -7 -2 -13 0 -13 6 0 6 -4 7 -10 4 -5 -3 -10 0 -10 8 0 20
-36 51 -45 38 -12 -20 -25 -11 -19 13 5 20 1 25 -24 34 -17 6 -33 8 -36 5 -3
-4 -6 -1 -6 5 0 7 -7 12 -15 12 -9 0 -18 7 -21 15 -3 8 -30 21 -60 30 -33 9
-54 21 -54 30 0 8 -6 12 -14 9 -8 -3 -19 3 -26 15 -10 20 -70 58 -70 45 0 -4
-6 -1 -13 5 -8 6 -17 8 -20 4 -4 -3 -7 2 -7 12 0 14 -3 15 -15 5 -9 -7 -15 -8
-15 -2 0 5 -16 10 -35 9 -23 -1 -39 5 -49 18 -9 12 -26 19 -52 19 -21 1 -42 6
-46 11 -4 6 -18 10 -30 11 -13 0 -54 11 -93 24 -38 13 -74 23 -79 22 -8 -3
-56 -3 -148 0 -21 0 -38 5 -38 10 0 9 -59 6 -76 -5 -6 -3 -14 -4 -18 0 -11 11
-60 12 -86 1z m-605 -1991 c67 -20 118 -67 67 -61 -15 2 -62 7 -104 12 -42 4
-79 10 -82 13 -3 3 -3 15 1 27 4 18 13 22 42 22 20 0 54 -6 76 -13z m80 -116
c43 -11 102 -40 116 -58 11 -12 8 -13 -17 -7 -16 4 -33 10 -39 14 -5 5 -31 11
-57 15 -27 4 -48 11 -48 16 0 5 -6 6 -12 4 -7 -3 -20 0 -28 5 -13 9 -13 11 0
20 8 6 24 8 35 4 11 -3 34 -9 50 -13z m-15 -81 c0 -5 -4 -10 -10 -10 -5 0 -10
5 -10 10 0 6 5 10 10 10 6 0 10 -4 10 -10z m95 -44 l27 -25 -31 -15 c-18 -10
-28 -22 -25 -30 9 -22 -41 -26 -55 -4 -9 15 -8 20 3 24 9 3 21 21 28 40 14 41
19 41 53 10z m-229 -63 c-7 -7 -26 7 -26 19 0 6 6 6 15 -2 9 -7 13 -15 11 -17z
m148 -128 c-5 -20 1 -31 26 -55 28 -26 31 -34 25 -67 -3 -21 -10 -39 -15 -41
-6 -2 -10 -14 -10 -27 0 -27 -64 -155 -86 -171 -8 -7 -16 -20 -19 -30 -5 -26
-34 -82 -46 -89 -17 -11 -9 -23 21 -30 17 -4 30 -10 30 -15 0 -4 11 -11 24
-14 17 -4 25 -15 30 -40 7 -38 -5 -65 -37 -86 -17 -10 -22 -10 -32 3 -10 14
-16 12 -45 -18 -19 -19 -38 -35 -43 -35 -5 0 -6 34 -2 78 7 84 1 85 -36 4 -28
-64 -26 -136 7 -169 24 -24 26 -24 38 -8 14 19 36 13 36 -9 0 -7 14 -32 30
-54 37 -51 38 -69 5 -84 -14 -6 -25 -15 -25 -20 0 -15 -44 3 -63 26 -57 69
-89 171 -91 296 -1 78 -12 105 -63 157 -13 12 -23 29 -23 38 0 8 -7 15 -15 15
-10 0 -15 10 -15 34 0 19 -4 38 -10 41 -5 3 -10 16 -10 28 -1 31 -9 151 -14
222 -6 76 -2 90 36 116 22 16 32 19 37 10 9 -14 30 -16 91 -6 39 6 181 19 248
24 19 1 21 -3 16 -24z m36 -630 c0 -3 -9 -15 -19 -26 -20 -22 -35 -12 -25 15
6 14 44 24 44 11z m-15 -65 c3 -5 1 -10 -4 -10 -6 0 -11 5 -11 10 0 6 2 10 4
10 3 0 8 -4 11 -10z m-188 -52 c-3 -8 -6 -5 -6 6 -1 11 2 17 5 13 3 -3 4 -12
1 -19z m785 -133 c3 -3 3 -17 0 -30 -3 -18 -11 -25 -28 -25 -12 0 -26 -5 -29
-11 -12 -19 -56 -30 -71 -18 -8 6 -12 15 -9 19 3 4 -5 11 -18 14 l-22 7 23 11
c12 6 22 14 22 18 0 4 19 7 42 8 23 1 44 4 46 7 7 7 37 6 44 0z m-282 -31 c0
-8 -4 -14 -10 -14 -5 0 -10 9 -10 21 0 11 5 17 10 14 6 -3 10 -13 10 -21z
m-30 1 c0 -8 -4 -15 -10 -15 -5 0 -10 7 -10 15 0 8 5 15 10 15 6 0 10 -7 10
-15z m778 -481 c14 -15 14 -16 -3 -13 -10 2 -20 10 -23 17 -5 17 6 15 26 -4z
m-838 -84 c0 -5 -7 -10 -15 -10 -8 0 -15 5 -15 10 0 6 7 10 15 10 8 0 15 -4
15 -10z"/>
<path d="M3023 3738 c-26 -9 -49 -21 -51 -27 -5 -16 -32 -14 -32 3 0 9 -10 13
-25 12 -14 0 -25 -4 -25 -8 0 -5 -6 -8 -13 -8 -7 0 -23 -9 -34 -20 -15 -13
-23 -15 -25 -8 -5 15 -38 -112 -38 -147 0 -14 5 -25 10 -25 6 0 10 7 10 15 0
17 16 20 25 4 4 -6 14 -7 24 -4 9 4 30 9 46 11 17 2 35 10 40 18 11 14 60 28
180 51 39 7 81 18 95 23 38 15 159 10 169 -7 6 -9 18 -12 32 -8 13 3 29 1 36
-5 10 -8 20 -8 39 1 35 15 49 15 35 -2 -13 -16 -5 -28 15 -20 8 3 14 0 14 -6
0 -8 13 -10 43 -6 45 7 60 15 40 22 -7 2 -10 10 -7 18 6 13 -96 76 -146 90
-14 4 -43 15 -65 25 -58 27 -323 32 -392 8z"/>
<path d="M3623 3570 c-31 -13 -29 -20 5 -20 19 0 29 5 29 15 0 17 -3 17 -34 5z"/>
<path d="M2941 3503 c0 -7 -7 -13 -13 -13 -31 0 -85 -22 -111 -45 -25 -22 -26
-27 -15 -47 7 -13 11 -26 10 -30 -1 -5 9 -8 22 -8 42 0 57 -10 46 -30 -12 -22
11 -50 41 -50 11 0 31 -12 44 -27 23 -27 26 -28 130 -28 59 0 109 3 111 7 3 5
11 8 17 8 7 0 6 -4 -3 -11 -13 -9 -13 -10 0 -7 8 3 25 25 36 49 25 52 54 82
54 55 0 -9 -4 -16 -10 -16 -5 0 -10 -4 -10 -10 0 -5 7 -10 15 -10 8 0 15 -4
15 -8 0 -21 68 -7 110 23 94 66 87 112 -26 159 -61 25 -86 29 -217 35 -81 3
-151 3 -155 0 -4 -4 -24 -10 -44 -13 -30 -5 -37 -3 -41 11 -3 10 -5 12 -6 6z
m351 -36 c74 -20 71 -26 -14 -29 -48 -2 -126 7 -121 14 2 5 -2 9 -9 9 -19 2
42 16 72 17 14 1 46 -4 72 -11z m-72 -87 c0 -5 -4 -10 -10 -10 -5 0 -10 5 -10
10 0 6 5 10 10 10 6 0 10 -4 10 -10z m-136 -56 c9 -20 15 -39 12 -41 -3 -3
-21 0 -40 7 -37 12 -47 35 -24 58 20 20 33 14 52 -24z m156 -55 c0 -5 -7 -9
-15 -9 -15 0 -20 12 -9 23 8 8 24 -1 24 -14z"/>
<path d="M4246 3409 c-25 -20 -27 -32 -5 -35 5 -1 11 -3 14 -4 3 -1 11 -3 18
-4 6 0 12 -8 12 -16 0 -8 6 -21 13 -29 11 -11 13 -37 9 -108 -3 -51 -2 -93 3
-93 14 0 39 76 45 143 13 135 -37 203 -109 146z"/>
<path d="M2770 3381 c0 -6 5 -13 10 -16 6 -3 10 1 10 9 0 9 -4 16 -10 16 -5 0
-10 -4 -10 -9z"/>
<path d="M4016 3138 c-15 -21 -14 -23 12 -48 15 -14 39 -31 54 -38 l28 -12
-26 50 c-35 67 -48 77 -68 48z"/>
<path d="M3904 3046 c-3 -8 -1 -23 5 -33 9 -15 10 -13 11 15 0 34 -7 42 -16
18z"/>
<path d="M4147 3024 c-3 -3 -3 -12 0 -20 4 -11 9 -12 19 -3 8 6 14 15 14 20 0
10 -24 12 -33 3z"/>
<path d="M3875 2889 c-4 -6 -5 -11 -4 -12 2 -2 11 -8 20 -15 15 -11 17 -9 15
13 -1 25 -19 34 -31 14z"/>
<path d="M3876 2822 c-7 -12 4 -52 15 -52 12 0 12 47 0 55 -5 3 -12 2 -15 -3z"/>
<path d="M2676 2767 c-25 -11 -46 -25 -46 -32 0 -12 63 -25 126 -25 27 0 34
-4 34 -20 0 -26 31 -27 53 -2 20 22 22 42 5 42 -6 0 -19 6 -27 14 -9 8 -35 21
-58 29 -38 13 -45 12 -87 -6z"/>
<path d="M3854 2704 c3 -9 6 -22 6 -30 0 -9 4 -13 9 -10 11 7 2 56 -11 56 -6
0 -7 -7 -4 -16z"/>
<path d="M3140 2700 c0 -5 4 -10 10 -10 20 0 76 -60 99 -105 12 -25 26 -70 30
-100 10 -75 21 -81 21 -11 0 82 -46 166 -117 214 -35 24 -43 27 -43 12z"/>
<path d="M3680 2695 c0 -9 5 -15 11 -13 6 2 11 8 11 13 0 5 -5 11 -11 13 -6 2
-11 -4 -11 -13z"/>
<path d="M3814 2625 c-12 -19 -14 -31 -7 -47 9 -20 10 -20 29 13 32 53 11 84
-22 34z"/>
<path d="M3685 2501 c-3 -5 -1 -12 5 -16 5 -3 10 1 10 9 0 18 -6 21 -15 7z"/>
<path d="M3862 2458 c-14 -14 -16 -48 -2 -48 5 0 14 9 21 21 13 25 -1 45 -19
27z"/>
<path d="M3351 1845 c-1 -13 19 -35 31 -35 4 0 8 5 8 10 0 6 -6 10 -14 10 -8
0 -17 6 -19 13 -3 6 -6 7 -6 2z"/>
<path d="M3397 1753 c-12 -11 -8 -23 8 -23 8 0 15 7 15 15 0 16 -12 20 -23 8z"/>
<path d="M3351 1654 c0 -11 3 -14 6 -6 3 7 2 16 -1 19 -3 4 -6 -2 -5 -13z"/>
<path d="M3841 1338 c1 -29 -6 -73 -14 -98 -15 -41 -15 -43 0 -25 21 27 54
102 64 143 7 30 5 32 -22 32 -28 0 -29 -1 -28 -52z"/>
<path d="M3652 989 c-13 -16 -20 -29 -15 -29 9 1 47 50 41 54 -1 2 -13 -10
-26 -25z"/>
<path d="M4330 757 c0 -13 10 -43 22 -68 12 -24 31 -73 43 -109 16 -49 27 -66
42 -68 22 -3 43 -39 43 -75 0 -12 7 -31 15 -41 17 -22 20 -61 5 -51 -18 11
-11 -13 8 -27 10 -7 19 -22 20 -33 0 -11 4 -35 8 -53 5 -28 3 -34 -15 -39 -24
-6 -29 -23 -6 -23 19 0 20 -39 1 -65 -7 -11 -12 -30 -11 -43 1 -13 -2 -25 -7
-28 -4 -3 -8 -12 -8 -20 0 -10 12 -14 44 -14 l43 0 23 147 c13 90 28 152 36
159 7 6 11 14 7 17 -3 4 -1 7 6 7 10 0 11 10 7 36 -5 23 -3 41 6 51 10 13 10
17 1 20 -7 3 -13 11 -13 18 0 7 -11 20 -25 29 -14 9 -25 23 -25 31 0 8 -7 18
-15 23 -9 4 -17 18 -18 29 0 12 -4 21 -7 20 -3 -1 -41 35 -85 79 -44 44 -88
84 -97 87 -10 4 -18 11 -18 17 0 5 -7 10 -15 10 -9 0 -15 -9 -15 -23z"/>
<path d="M1770 641 c-6 -12 -7 -21 -1 -21 10 0 24 30 17 37 -2 3 -9 -5 -16
-16z"/>
<path d="M1712 533 c-24 -41 -41 -78 -38 -81 3 -3 8 -3 10 -1 9 9 77 151 74
154 -2 2 -22 -31 -46 -72z"/>
<path d="M3223 453 c-7 -18 7 -35 23 -29 24 9 28 -17 6 -35 -27 -21 -29 -33
-3 -20 15 8 22 6 37 -14 10 -13 21 -22 25 -19 4 2 9 -3 13 -11 3 -8 11 -15 18
-15 35 -1 80 -63 72 -101 l-5 -24 13 25 c6 14 13 26 14 28 1 1 11 5 23 7 16 3
25 -2 31 -18 5 -13 9 -16 10 -7 0 13 2 13 9 1 5 -8 16 -11 25 -8 26 10 56 -14
56 -45 0 -16 5 -28 10 -28 6 0 10 -7 10 -15 0 -13 38 -21 72 -16 4 0 30 3 57
5 27 2 54 6 59 10 6 3 13 2 17 -4 3 -5 19 -7 34 -4 32 7 71 -10 71 -29 0 -7
-9 -19 -19 -27 -20 -14 -19 -36 1 -24 6 4 8 -1 3 -15 -6 -20 -4 -22 25 -19 30
3 34 9 67 88 19 47 39 89 44 94 5 5 28 11 51 12 30 1 44 7 46 18 2 9 8 16 13
16 6 0 8 4 4 10 -3 5 -29 9 -58 9 -29 0 -77 5 -107 11 -30 7 -62 13 -70 15 -8
1 -22 5 -30 8 -8 3 -46 14 -85 23 -38 9 -124 36 -190 59 -290 103 -379 123
-392 88z"/>
<path d="M3187 341 c-30 -19 -67 -18 -67 3 0 6 -6 4 -13 -5 -7 -8 -21 -19 -32
-24 -18 -7 -18 -9 -2 -12 9 -3 17 -9 17 -14 0 -5 7 -9 16 -9 8 0 12 -5 9 -10
-4 -6 -10 -8 -15 -5 -12 7 -60 -34 -60 -52 0 -10 6 -13 16 -9 9 3 22 6 30 6 8
0 14 7 14 16 0 8 4 13 9 10 5 -3 11 0 14 8 6 15 67 28 67 14 0 -4 7 -8 15 -8
18 0 20 27 3 33 -7 2 -28 0 -45 -4 -18 -4 -31 -3 -28 1 2 4 18 10 35 14 18 3
29 10 25 16 -3 5 1 10 9 10 9 0 16 9 16 20 0 24 2 24 -33 1z"/>
<path d="M3368 234 c-5 -4 -8 -23 -8 -43 0 -25 3 -32 11 -24 6 6 9 25 7 43 -2
17 -6 28 -10 24z"/>
<path d="M3065 60 c-3 -5 -1 -10 4 -10 6 0 11 5 11 10 0 6 -2 10 -4 10 -3 0
-8 -4 -11 -10z"/>
<path d="M3026 35 c8 -19 14 -19 14 0 0 8 -4 15 -10 15 -5 0 -7 -7 -4 -15z"/>
</g>
</svg>
